<svg width="16" height="16" viewBox="0 0 16 16" fill="none" xmlns="http://www.w3.org/2000/svg">
<path d="M2.44125 12.8261C2.39415 12.779 2.3706 12.7555 2.35154 12.7347C1.88282 12.2246 1.88282 11.4405 2.35154 10.9304C2.3706 10.9097 2.39415 10.8861 2.44125 10.839L3.41338 9.8669C3.94808 9.3322 4.75557 9.17927 5.44876 9.48143C6.14195 9.78359 6.94944 9.63067 7.48414 9.09597L9.08202 7.49809C9.61672 6.96339 9.76964 6.1559 9.46748 5.46271C9.16532 4.76952 9.31825 3.96203 9.85295 3.42733L10.8251 2.4552C10.8722 2.4081 10.8957 2.38455 10.9165 2.36549C11.4266 1.89677 12.2107 1.89677 12.7208 2.36549C12.7415 2.38455 12.7651 2.4081 12.8121 2.4552L13.403 3.04609C13.8842 3.52729 14.0862 4.22097 13.9386 4.88528C12.9328 9.41168 9.39773 12.9467 4.87133 13.9526C4.20703 14.1002 3.51334 13.8982 3.03214 13.417L2.44125 12.8261Z" stroke="#5657EB"/>
</svg>
