<svg width="25" height="24" viewBox="0 0 25 24" fill="none" xmlns="http://www.w3.org/2000/svg">
<path d="M22.5 16C22.5 17.1046 21.6046 18 20.5 18C19.3954 18 18.5 17.1046 18.5 16C18.5 14.8954 19.3954 14 20.5 14C21.6046 14 22.5 14.8954 22.5 16Z" stroke="white" stroke-width="1.5"/>
<path d="M4.5 3V3C3.39543 3 2.5 3.89543 2.5 5V8C2.5 10.7614 4.73858 13 7.5 13V13C10.2614 13 12.5 10.7614 12.5 8V5C12.5 3.89543 11.6046 3 10.5 3V3" stroke="white" stroke-width="1.5" stroke-linecap="round" stroke-linejoin="round"/>
<path d="M7.5 13V18.25C7.5 20.3211 9.17893 22 11.25 22V22C13.3211 22 15 20.3211 15 18.25V12.75C15 11.2312 16.2312 10 17.75 10V10C19.2688 10 20.5 11.2312 20.5 12.75V14" stroke="white" stroke-width="1.5" stroke-linecap="round" stroke-linejoin="round"/>
<path d="M10.5 2V4" stroke="white" stroke-width="1.5" stroke-linecap="round" stroke-linejoin="round"/>
<path d="M4.5 2V4" stroke="white" stroke-width="1.5" stroke-linecap="round" stroke-linejoin="round"/>
</svg>
