<svg width="16" height="16" viewBox="0 0 16 16" fill="none" xmlns="http://www.w3.org/2000/svg">
<path d="M9.85516 13.134L9.46171 12.8254L9.85516 13.134ZM6.14744 13.134L5.75399 13.4425L6.14744 13.134ZM8.0013 14.6706V14.1706V14.6706ZM13.3346 6.40612H12.8346C12.8346 7.22379 12.4082 8.3179 11.7371 9.50434C11.0771 10.6712 10.2241 11.8532 9.46171 12.8254L9.85516 13.134L10.2486 13.4425C11.0261 12.4511 11.9128 11.225 12.6075 9.99667C13.2912 8.78795 13.8346 7.49994 13.8346 6.40612H13.3346ZM6.14744 13.134L6.54089 12.8254C5.77849 11.8532 4.92549 10.6712 4.26547 9.50434C3.59438 8.3179 3.16797 7.22379 3.16797 6.40612H2.66797H2.16797C2.16797 7.49994 2.71137 8.78795 3.39506 9.99667C4.08982 11.225 4.97655 12.4511 5.75399 13.4425L6.14744 13.134ZM2.66797 6.40612H3.16797C3.16797 3.47747 5.36582 1.16699 8.0013 1.16699V0.666992V0.166992C4.74574 0.166992 2.16797 2.99551 2.16797 6.40612H2.66797ZM8.0013 0.666992V1.16699C10.6368 1.16699 12.8346 3.47747 12.8346 6.40612H13.3346H13.8346C13.8346 2.99551 11.2569 0.166992 8.0013 0.166992V0.666992ZM9.85516 13.134L9.46171 12.8254C9.04907 13.3516 8.77739 13.6954 8.53409 13.9164C8.3122 14.1179 8.16409 14.1706 8.0013 14.1706V14.6706V15.1706C8.48734 15.1706 8.86448 14.9672 9.20647 14.6566C9.52706 14.3654 9.8579 13.9408 10.2486 13.4425L9.85516 13.134ZM6.14744 13.134L5.75399 13.4425C6.14471 13.9408 6.47554 14.3654 6.79613 14.6566C7.13813 14.9672 7.51526 15.1706 8.0013 15.1706V14.6706V14.1706C7.83852 14.1706 7.6904 14.1179 7.46851 13.9164C7.22522 13.6954 6.95353 13.3516 6.54089 12.8254L6.14744 13.134ZM6.0013 6.66699H5.5013C5.5013 8.0477 6.62059 9.16699 8.0013 9.16699V8.66699V8.16699C7.17287 8.16699 6.5013 7.49542 6.5013 6.66699H6.0013ZM8.0013 8.66699V9.16699C9.38201 9.16699 10.5013 8.0477 10.5013 6.66699H10.0013H9.5013C9.5013 7.49542 8.82973 8.16699 8.0013 8.16699V8.66699ZM10.0013 6.66699H10.5013C10.5013 5.28628 9.38201 4.16699 8.0013 4.16699V4.66699V5.16699C8.82973 5.16699 9.5013 5.83857 9.5013 6.66699H10.0013ZM8.0013 4.66699V4.16699C6.62059 4.16699 5.5013 5.28628 5.5013 6.66699H6.0013H6.5013C6.5013 5.83857 7.17287 5.16699 8.0013 5.16699V4.66699Z" fill="#5657EB"/>
</svg>
