<svg width="40" height="40" viewBox="0 0 40 40" fill="none" xmlns="http://www.w3.org/2000/svg">
<path d="M38.9724 3.58291C38.0041 2.29912 36.5265 1.56283 34.9184 1.56283H34.2377V1.17218C34.2377 0.52488 33.7131 0.000249324 33.0658 0.000249324C32.4184 0.000249324 31.8938 0.52488 31.8938 1.17218V4.29709C31.8938 4.94439 32.4184 5.46902 33.0658 5.46902C33.7128 5.46902 34.2377 4.94439 34.2377 4.29709V3.90644H34.9184C35.7842 3.90644 36.58 4.30287 37.1014 4.99416C37.6228 5.68546 37.7854 6.55925 37.5476 7.39182L34.4373 18.2776C33.5693 21.3155 30.7566 23.4369 27.5972 23.4369C24.4379 23.4369 21.625 21.3153 20.7572 18.2776L17.6471 7.39157C17.4093 6.559 17.572 5.68495 18.0933 4.99391C18.6147 4.30262 19.4103 3.90619 20.2763 3.90619H20.957V4.29684C20.957 4.94389 21.4817 5.46877 22.129 5.46877C22.776 5.46877 23.3009 4.94414 23.3009 4.29684V1.17193C23.3009 0.524882 22.7763 0 22.129 0C21.4817 0 20.957 0.52463 20.957 1.17193V1.56258H20.2763C18.6682 1.56258 17.1906 2.29887 16.2223 3.58267C15.254 4.86646 14.9521 6.48937 15.3937 8.03561L18.5041 18.9214C19.0732 20.9135 20.2484 22.6259 21.9025 23.8735C22.2569 24.141 22.6267 24.3796 23.008 24.5922L26.4258 32.659V33.5047C26.4258 35.7932 24.5638 37.6552 22.2753 37.6552C19.9867 37.6552 18.1247 35.7932 18.1247 33.5047V25.468C18.1247 21.7635 15.1107 18.7494 11.4061 18.7494C7.70152 18.7494 4.68748 21.7635 4.68748 25.468V28.242C2.01632 28.7865 0 31.1538 0 33.9833C0 37.214 2.62843 39.8424 5.85917 39.8424C9.0899 39.8424 11.7183 37.214 11.7183 33.9833C11.7183 31.1538 9.70201 28.7863 7.03084 28.242V25.468C7.03084 23.0558 8.99337 21.093 11.4059 21.093C13.8184 21.093 15.7809 23.0556 15.7809 25.468V33.5047C15.7809 37.0856 18.6941 39.9988 22.275 39.9988C25.8559 39.9988 28.7692 37.0856 28.7692 33.5047V32.659L32.1869 24.5922C32.5683 24.3796 32.9381 24.141 33.2925 23.8735C34.9466 22.6259 36.1218 20.9135 36.6909 18.9214L39.8012 8.03561C40.2429 6.48962 39.9407 4.86646 38.9724 3.58291ZM9.37446 33.9838C9.37446 35.9222 7.7973 37.4993 5.85891 37.4993C3.92052 37.4993 2.34336 35.9222 2.34336 33.9838C2.34336 32.0454 3.92052 30.4682 5.85891 30.4682C7.7973 30.4682 9.37446 32.0454 9.37446 33.9838ZM27.5972 29.4175L25.9995 25.6463C26.5226 25.735 27.0563 25.781 27.5972 25.781C28.1382 25.781 28.6719 25.735 29.195 25.6463L27.5972 29.4175Z" fill="#5657EB"/>
</svg>
