<svg width="20" height="20" viewBox="0 0 20 20" fill="none" xmlns="http://www.w3.org/2000/svg">
<path d="M1 17V15.3541C1 14.5363 1.4979 13.8008 2.25722 13.4971L4.29136 12.6835C5.25714 12.2971 6.35781 12.7156 6.82299 13.646L7 14C7 14 9.5 13.5 11.5 11.5C13.5 9.5 14 7 14 7L13.646 6.82299C12.7156 6.35781 12.2971 5.25714 12.6835 4.29136L13.4971 2.25722C13.8008 1.4979 14.5363 1 15.3541 1H17C18.1046 1 19 1.89543 19 3C19 11.8366 11.8366 19 3 19C1.89543 19 1 18.1046 1 17Z" stroke="#5657EB" stroke-width="1.5" stroke-linejoin="round"/>
</svg>
