<svg width="24" height="24" viewBox="0 0 24 24" fill="none" xmlns="http://www.w3.org/2000/svg">
<path d="M17 17.5C17 19.433 10 21 10 21C10 21 3 19.433 3 17.5C3 15.567 6.13401 14 10 14C13.866 14 17 15.567 17 17.5Z" stroke="#5657EB" stroke-width="1.5" stroke-linejoin="round"/>
<circle cx="10" cy="7" r="4" stroke="#5657EB" stroke-width="1.5" stroke-linejoin="round"/>
<path d="M15.3402 4.26538C17.2518 4.4373 18.7502 6.04349 18.7504 7.99976C18.7504 10.0707 17.0713 11.7495 15.0004 11.7498C14.6088 11.7498 14.2312 11.6892 13.8763 11.5779C14.3281 11.195 14.7212 10.7462 15.0433 10.2468C16.2659 10.2237 17.2504 9.22789 17.2504 7.99976C17.2503 7.07916 16.6966 6.2885 15.9047 5.94019C15.7989 5.34705 15.6066 4.78446 15.3402 4.26538Z" fill="#5657EB"/>
<path d="M15.7523 13.2703C17.1923 13.3416 18.5097 13.614 19.5316 14.0398C20.1285 14.2885 20.6608 14.6036 21.0551 14.9919C21.452 15.383 21.7503 15.8934 21.7504 16.4998C21.7504 17.1061 21.4519 17.6165 21.0551 18.0076C20.6608 18.3958 20.1284 18.711 19.5316 18.9597C19.2142 19.092 18.8675 19.2078 18.4984 19.3093C18.8125 18.7586 18.9877 18.1692 18.9974 17.5544C19.4628 17.3559 19.7959 17.1415 20.0023 16.9382C20.2122 16.7313 20.2504 16.5836 20.2504 16.4998C20.2503 16.4158 20.2122 16.2681 20.0023 16.0613C19.7895 15.8516 19.443 15.6281 18.9545 15.4246C18.7072 15.3215 18.4322 15.2275 18.1342 15.1443C17.5698 14.4179 16.7529 13.779 15.7523 13.2703Z" fill="#5657EB"/>
</svg>
