<svg width="24" height="24" viewBox="0 0 24 24" fill="none" xmlns="http://www.w3.org/2000/svg">
<path d="M12 22C17.5229 22 22 17.5228 22 12C22 6.47715 17.5229 2 12 2C6.47718 2 2.00003 6.47715 2.00003 12C2.00003 13.5114 2.33535 14.9446 2.93565 16.229L2.22301 20.6245C2.1135 21.3 2.69954 21.8834 3.37452 21.7709L7.72984 21.045C9.02483 21.6575 10.4724 22 12 22Z" stroke="#5657EB" stroke-width="1.5" stroke-linecap="square" stroke-linejoin="round"/>
<path d="M16 15.1111V14.6749C16 14.1331 15.6701 13.6458 15.167 13.4446L14.7005 13.258C14.1789 13.0494 13.5845 13.2753 13.3333 13.7778C13.3333 13.7778 12.2222 13.5556 11.3333 12.6667C10.4444 11.7778 10.2222 10.6667 10.2222 10.6667C10.7247 10.4155 10.9506 9.82105 10.742 9.29949L10.5554 8.83296C10.3542 8.32988 9.86693 8 9.32509 8H8.88889C8.39797 8 8 8.39797 8 8.88889C8 12.8162 11.1838 16 15.1111 16C15.602 16 16 15.602 16 15.1111Z" fill="#5657EB"/>
</svg>
